<svg width="10" height="13" viewBox="0 0 10 13" fill="none" xmlns="http://www.w3.org/2000/svg">
<g clip-path="url(#clip0)">
<path d="M1.42773 1.73743C1.42773 1.32321 1.74753 0.987427 2.14202 0.987427C2.53651 0.987427 2.85631 1.32321 2.85631 1.73743V12.2374C2.85631 12.6517 2.53651 12.9874 2.14202 12.9874C1.74753 12.9874 1.42773 12.6517 1.42773 12.2374V1.73743Z" fill="white"/>
<path d="M7.14258 1.73743C7.14258 1.32321 7.46236 0.987427 7.85686 0.987427C8.25136 0.987427 8.57115 1.32321 8.57115 1.73743V12.2374C8.57115 12.6517 8.25136 12.9874 7.85686 12.9874C7.46236 12.9874 7.14258 12.6517 7.14258 12.2374V1.73743Z" fill="white"/>
<path d="M4.28571 8.48743C4.28571 9.73007 3.32632 10.7374 2.14286 10.7374C0.959393 10.7374 0 9.73007 0 8.48743C0 7.24479 0.959393 6.23743 2.14286 6.23743C3.32632 6.23743 4.28571 7.24479 4.28571 8.48743Z" fill="white"/>
<path d="M10.0006 5.48743C10.0006 6.73007 9.0412 7.73743 7.8577 7.73743C6.67424 7.73743 5.71484 6.73007 5.71484 5.48743C5.71484 4.24479 6.67424 3.23743 7.8577 3.23743C9.0412 3.23743 10.0006 4.24479 10.0006 5.48743Z" fill="white"/>
</g>
<defs>
<clipPath id="clip0">
<rect width="10" height="12" fill="white" transform="translate(0 0.987427)"/>
</clipPath>
</defs>
</svg>
