<svg width="30" height="30" viewBox="0 0 30 30" fill="none" xmlns="http://www.w3.org/2000/svg">
<mask id="mask0" mask-type="alpha" maskUnits="userSpaceOnUse" x="0" y="0" width="30" height="31">
<path fill-rule="evenodd" clip-rule="evenodd" d="M14.9185 0.208496H0.0449219V30.0007H29.7922V0.208496H14.9185Z" fill="white"/>
</mask>
<g mask="url(#mask0)">
<path fill-rule="evenodd" clip-rule="evenodd" d="M14.8942 0.208496C6.6825 0.208496 0 6.89175 0 15.1035C0 23.3182 6.6825 30.0007 14.8942 30.0007C23.109 30.0007 29.7922 23.3182 29.7922 15.1035C29.7922 6.89175 23.109 0.208496 14.8942 0.208496ZM18.6007 15.6277H16.1775V24.2677H12.5858V15.6277H10.878V12.5752H12.5858V10.6005C12.5858 9.18825 13.257 6.9765 16.2098 6.9765L18.87 6.98775V9.95025H16.9395C16.623 9.95025 16.1775 10.1085 16.1775 10.782V12.5782H18.9142L18.6007 15.6277Z" fill="#93A2B3"/>
</g>
</svg>
