<svg width="10" height="12" viewBox="0 0 10 12" fill="none" xmlns="http://www.w3.org/2000/svg">
<g clip-path="url(#clip0)">
<path d="M0 9.72273C0 9.18668 0.447715 8.75214 1 8.75214C1.55228 8.75214 2 9.18668 2 9.72273V11.0168C2 11.5529 1.55228 11.9874 1 11.9874C0.447715 11.9874 0 11.5529 0 11.0168V9.72273Z" fill="white"/>
<path d="M4 6.48744C4 5.95139 4.44772 5.51685 5 5.51685C5.55228 5.51685 6 5.95139 6 6.48744V11.0168C6 11.5529 5.55228 11.9874 5 11.9874C4.44772 11.9874 4 11.5529 4 11.0168V6.48744Z" fill="white"/>
<path d="M8 1.95802C8 1.42197 8.44772 0.987427 9 0.987427C9.55228 0.987427 10 1.42197 10 1.95802V11.0168C10 11.5529 9.55228 11.9874 9 11.9874C8.44772 11.9874 8 11.5529 8 11.0168V1.95802Z" fill="white"/>
</g>
<defs>
<clipPath id="clip0">
<rect width="10" height="11" fill="white" transform="translate(0 0.987427)"/>
</clipPath>
</defs>
</svg>
