<svg id="Группа_1" data-name="Группа 1" xmlns="http://www.w3.org/2000/svg" width="31" height="31" viewBox="0 0 31 31">
  <defs>
    <style>
      .cls-1 {
        fill: #93a2b3;
      }

      .cls-2 {
        fill: #fff;
        fill-rule: evenodd;
      }
    </style>
  </defs>
  <circle id="Эллипс_1" data-name="Эллипс 1" class="cls-1" cx="15.5" cy="15.5" r="15.5"/>
  <path id="Фигура_1" data-name="Фигура 1" class="cls-2" d="M13.187,22a0.074,0.074,0,0,0,0-.047q0.015-2.108.024-4.217c0.006-1.536.013-3.071-.005-4.607,0-.177-0.009-0.354-0.015-0.531,0-.044,0-0.044.041-0.045h3.092c0.086,0,.077-0.014.078,0.073q0,0.592,0,1.184v0.064l0.012,0,0.037-.053a3.607,3.607,0,0,1,.891-0.914,3.068,3.068,0,0,1,1.223-.513,4.083,4.083,0,0,1,1.957.1,3.228,3.228,0,0,1,2.01,1.7A4.205,4.205,0,0,1,22.9,15.32a6.2,6.2,0,0,1,.1,1.153q0,2.737,0,5.474c0,0.018,0,.037,0,0.055H19.8c0-.026,0-0.053,0-0.079q0-2.456,0-4.912a4.475,4.475,0,0,0-.059-0.79,2.237,2.237,0,0,0-.223-0.675,1.3,1.3,0,0,0-.841-0.668,2,2,0,0,0-.694-0.052,1.518,1.518,0,0,0-.845.327,2.067,2.067,0,0,0-.513.608,1.529,1.529,0,0,0-.188.545,3.491,3.491,0,0,0-.025.463q0,2.6,0,5.192a0.057,0.057,0,0,0,0,.041H13.187ZM10,8a0.7,0.7,0,0,0,.164.024,1.761,1.761,0,0,1,.764.279A1.518,1.518,0,0,1,11.6,9.344a1.663,1.663,0,0,1-.058.849,1.561,1.561,0,0,1-.892.919,1.971,1.971,0,0,1-.646.149,2.444,2.444,0,0,1-.738-0.051,1.6,1.6,0,0,1-1.21-1.167,1.182,1.182,0,0,1-.033-0.192A0.914,0.914,0,0,1,8,9.709V9.489a0.117,0.117,0,0,0,.022-0.073,1.509,1.509,0,0,1,.745-1.14A2,2,0,0,1,9.775,8H10Zm1.407,13.989,0,0.012H8.2l0-.012h3.2Zm0,0H8.2a0.152,0.152,0,0,1,0-.06q0-4.653,0-9.306c0-.079-0.009-0.068.069-0.068h3.074c0.079,0,.07-0.009.07,0.068q0,4.653,0,9.306A0.152,0.152,0,0,1,11.407,21.989Z"/>
</svg>
