<svg width="14" height="15" viewBox="0 0 14 15" fill="none" xmlns="http://www.w3.org/2000/svg">
<g clip-path="url(#clip0)">
<mask id="mask0" mask-type="alpha" maskUnits="userSpaceOnUse" x="1" y="7" width="5" height="6">
<path d="M1.10742 7.8132H5.09889V12.7705H1.10742V7.8132Z" fill="white"/>
</mask>
<g mask="url(#mask0)">
<path fill-rule="evenodd" clip-rule="evenodd" d="M3.07512 10.2416C3.41886 10.2416 3.71617 10.1218 3.95933 9.88579C4.20249 9.64978 4.32628 9.36085 4.32628 9.02757C4.32628 8.69394 4.20286 8.405 3.9597 8.16863C3.84491 8.0542 3.70731 7.96367 3.55529 7.90256C3.40327 7.84145 3.24002 7.81104 3.07549 7.81319C2.73138 7.81319 2.4337 7.93298 2.19054 8.16899C2.07261 8.28038 1.97932 8.41393 1.91635 8.56149C1.85339 8.70905 1.82208 8.86751 1.82433 9.02721C1.82433 9.36121 1.94738 9.64978 2.19054 9.88579C2.4337 10.1218 2.73138 10.2416 3.07512 10.2416Z" fill="white"/>
<path fill-rule="evenodd" clip-rule="evenodd" d="M5.05237 11.2971C5.0345 11.1991 5.01001 11.1024 4.97905 11.0075C4.94612 10.908 4.90266 10.8122 4.84936 10.7214C4.79354 10.6247 4.72355 10.5364 4.64158 10.4593C4.55071 10.3759 4.44396 10.3104 4.32731 10.2666C4.2026 10.2196 4.06982 10.196 3.93605 10.1972C3.81926 10.1972 3.72789 10.2487 3.64389 10.302C3.59342 10.3341 3.53631 10.3695 3.47331 10.4085C3.44679 10.425 3.39594 10.4507 3.30384 10.4797C3.16679 10.5226 3.03747 10.5226 2.90042 10.4797C2.84115 10.4629 2.78424 10.4391 2.73094 10.4089C2.66757 10.3695 2.61084 10.3338 2.56 10.3016C2.47636 10.2487 2.38463 10.1972 2.26784 10.1972C2.13431 10.1961 2.00178 10.2196 1.87731 10.2666C1.75573 10.313 1.65036 10.3781 1.56268 10.4597C1.48073 10.5367 1.41074 10.6249 1.35489 10.7214C1.30145 10.8121 1.25787 10.908 1.22484 11.0075C1.19536 11.0969 1.17105 11.1945 1.15189 11.2971C1.13347 11.3973 1.12094 11.4924 1.11468 11.5811C1.10842 11.6644 1.10547 11.7513 1.10547 11.8389C1.10547 12.1858 1.258 12.3996 1.38621 12.518C1.56747 12.6853 1.80252 12.7704 2.08363 12.7704H4.12063C4.4021 12.7704 4.63679 12.6853 4.81805 12.518C4.94626 12.3996 5.09879 12.1858 5.09879 11.8385C5.09879 11.7509 5.09584 11.664 5.08958 11.5811C5.08257 11.4858 5.07027 11.3911 5.05273 11.2971H5.05237Z" fill="white"/>
</g>
<path fill-rule="evenodd" clip-rule="evenodd" d="M9.97667 9.0272C9.97667 9.36084 10.1001 9.64942 10.3433 9.88543C10.5864 10.1214 10.8841 10.2416 11.2275 10.2416C11.5716 10.2416 11.8693 10.1218 12.1124 9.88578C12.3556 9.64977 12.479 9.36084 12.479 9.0272C12.479 8.69357 12.3556 8.40499 12.1124 8.16862C11.9976 8.05409 11.86 7.96346 11.7079 7.90229C11.5558 7.84111 11.3924 7.81067 11.2278 7.81282C10.8841 7.81282 10.5864 7.93261 10.3436 8.16862C10.2255 8.27998 10.132 8.41356 10.0689 8.56119C10.0058 8.70882 9.97444 8.86739 9.97667 9.0272Z" fill="white"/>
<path fill-rule="evenodd" clip-rule="evenodd" d="M13.242 11.5805C13.2348 11.4855 13.2224 11.391 13.2048 11.2973C13.187 11.1993 13.1625 11.1025 13.1315 11.0076C13.0985 10.9082 13.0551 10.8123 13.0018 10.7216C12.9429 10.6211 12.8729 10.5328 12.794 10.4594C12.703 10.376 12.5962 10.3105 12.4794 10.2667C12.3549 10.2197 12.2224 10.196 12.0889 10.197C11.9717 10.197 11.8803 10.2488 11.7963 10.3017C11.7459 10.3339 11.6888 10.3697 11.6258 10.4087C11.5725 10.4391 11.5156 10.463 11.4563 10.4798C11.3192 10.5227 11.1896 10.5227 11.0529 10.4798C10.9936 10.4629 10.9367 10.439 10.8834 10.4087L10.7124 10.3017C10.6288 10.2488 10.5371 10.197 10.4203 10.197C10.2807 10.197 10.1491 10.2206 10.0294 10.2667C9.90818 10.3132 9.80245 10.3779 9.71476 10.4594C9.63286 10.5367 9.56288 10.6249 9.50697 10.7216C9.45374 10.8123 9.41029 10.9082 9.37729 11.0076C9.34781 11.097 9.32313 11.1947 9.30434 11.2973C9.28592 11.3974 9.27303 11.4925 9.26676 11.5809C9.26087 11.6645 9.25792 11.7514 9.25792 11.839C9.25792 12.1859 9.41045 12.3994 9.53866 12.5177C9.71992 12.6855 9.9546 12.7702 10.2361 12.7702H12.2727C12.5546 12.7702 12.7889 12.6855 12.9705 12.5177C13.0987 12.3997 13.2512 12.1859 13.2512 11.8387C13.2512 11.7507 13.2479 11.6635 13.242 11.5805ZM7.15129 3.41594C7.49503 3.41594 7.79271 3.29651 8.03587 3.06014C8.27903 2.82413 8.40245 2.53555 8.40245 2.20192C8.40245 1.86828 8.27903 1.57935 8.03587 1.34333C7.92113 1.22882 7.78354 1.13822 7.63152 1.07704C7.47949 1.01587 7.31622 0.98541 7.15166 0.98753C6.80755 0.98753 6.51024 1.10732 6.26708 1.34333C6.14908 1.45469 6.05572 1.58823 5.99269 1.73579C5.92966 1.88335 5.89829 2.04183 5.9005 2.20156C5.9005 2.53555 6.02392 2.82448 6.26708 3.06049C6.51024 3.29651 6.80792 3.41594 7.15129 3.41594Z" fill="white"/>
<path fill-rule="evenodd" clip-rule="evenodd" d="M9.16617 4.75507C9.15892 4.6601 9.1465 4.56556 9.12896 4.47186C9.11098 4.37384 9.08636 4.27708 9.05527 4.18221C9.02242 4.08279 8.97908 3.98693 8.92596 3.89614C8.87008 3.79929 8.79996 3.71087 8.7178 3.63366C8.6269 3.55035 8.52016 3.48501 8.40354 3.44128C8.27895 3.39427 8.14631 3.37061 8.01264 3.37155C7.89548 3.37155 7.80411 3.4234 7.72011 3.47668L7.5499 3.58324C7.49652 3.61356 7.43947 3.63734 7.38006 3.65405C7.24338 3.69696 7.11369 3.69696 6.97664 3.65405C6.91735 3.63733 6.86043 3.61355 6.80717 3.58324C6.75015 3.54785 6.69329 3.51221 6.63659 3.47632C6.55296 3.4234 6.46122 3.37155 6.34406 3.37155C6.21052 3.37065 6.07801 3.39431 5.95354 3.44128C5.83196 3.48777 5.72659 3.55249 5.6389 3.63402C5.55694 3.71117 5.48694 3.79946 5.43111 3.89614C5.37788 3.98692 5.33442 4.08278 5.30143 4.18221C5.27196 4.27161 5.24727 4.36923 5.22812 4.47186C5.21053 4.56567 5.19811 4.66033 5.1909 4.75543C5.18501 4.83875 5.18206 4.92565 5.18206 5.01326C5.18206 5.36012 5.33459 5.57396 5.46243 5.69268C5.64406 5.86003 5.87875 5.94478 6.16022 5.94478H8.19685C8.47832 5.94478 8.71301 5.86003 8.89427 5.69232C9.02248 5.57432 9.17501 5.36012 9.17501 5.0129C9.17501 4.92529 9.17206 4.83839 9.16617 4.75507ZM8.26575 11.2747H6.0379C5.94545 11.2776 5.85778 11.3153 5.79343 11.3798C5.72908 11.4443 5.6931 11.5305 5.6931 11.6203C5.6931 11.7101 5.72908 11.7964 5.79343 11.8609C5.85778 11.9254 5.94545 11.963 6.0379 11.9659H8.26575C8.36023 11.9659 8.45085 11.9295 8.51766 11.8646C8.58447 11.7998 8.62201 11.7118 8.62201 11.6201C8.62201 11.5284 8.58447 11.4405 8.51766 11.3756C8.45085 11.3108 8.36023 11.2743 8.26575 11.2743V11.2747ZM4.99601 6.19081C4.95801 6.16439 4.91502 6.14549 4.86949 6.1352C4.82396 6.12491 4.77679 6.12342 4.73068 6.13083C4.68456 6.13823 4.64039 6.15438 4.60071 6.17836C4.56102 6.20233 4.52659 6.23366 4.49938 6.27055L3.88891 7.09731C3.86062 7.13416 3.8402 7.17611 3.82881 7.22072C3.81743 7.26532 3.81532 7.31168 3.8226 7.35708C3.82989 7.40249 3.84643 7.44603 3.87125 7.48516C3.89607 7.52429 3.92868 7.55822 3.96717 7.58498C4.00565 7.61174 4.04925 7.63078 4.09541 7.641C4.14157 7.65122 4.18936 7.6524 4.236 7.64448C4.28263 7.63657 4.32717 7.61971 4.36702 7.59489C4.40687 7.57008 4.44122 7.5378 4.46806 7.49995L5.07854 6.6732C5.10582 6.63628 5.12535 6.59449 5.13599 6.55024C5.14663 6.50599 5.14818 6.46013 5.14055 6.4153C5.13292 6.37046 5.11626 6.32753 5.09152 6.28895C5.06678 6.25037 5.03445 6.2169 4.99638 6.19045L4.99601 6.19081ZM10.1255 7.64442C10.191 7.64434 10.2552 7.62676 10.311 7.59361C10.3668 7.56045 10.4122 7.51301 10.4421 7.45648C10.4719 7.39995 10.4852 7.33653 10.4804 7.27317C10.4756 7.20981 10.4529 7.14896 10.4147 7.09731L9.80427 6.27019C9.74921 6.19565 9.6659 6.14539 9.57266 6.13047C9.47942 6.11555 9.38389 6.13719 9.30709 6.19063C9.23029 6.24407 9.1785 6.32494 9.16313 6.41544C9.14776 6.50594 9.17005 6.59866 9.22511 6.6732L9.83559 7.49995C9.86857 7.54471 9.91209 7.58117 9.96252 7.6063C10.013 7.63142 10.0688 7.6445 10.1255 7.64442Z" fill="white"/>
</g>
<defs>
<clipPath id="clip0">
<rect width="14" height="14" fill="white" transform="translate(0 0.987427)"/>
</clipPath>
</defs>
</svg>
