<svg width="11" height="10" viewBox="0 0 11 10" fill="none" xmlns="http://www.w3.org/2000/svg">
<g clip-path="url(#clip0)">
<path d="M10.0833 0.987427C10.5896 0.987427 11 1.39038 11 1.88745C11 2.38453 10.5896 2.78748 10.0833 2.78748H0.916666C0.410406 2.78748 0 2.38453 0 1.88745C0 1.39038 0.410406 0.987427 0.916666 0.987427H10.0833Z" fill="white"/>
<path d="M10.0833 4.58716C10.5896 4.58716 11 4.99012 11 5.48719C11 5.98426 10.5896 6.38722 10.0833 6.38722H0.916666C0.410406 6.38722 0 5.98426 0 5.48719C0 4.99012 0.410406 4.58716 0.916666 4.58716H10.0833Z" fill="white"/>
<path d="M5.5 8.18738C6.00627 8.18738 6.41667 8.59034 6.41667 9.08741C6.41667 9.58448 6.00627 9.98744 5.5 9.98744H0.916667C0.410405 9.98744 0 9.58448 0 9.08741C0 8.59034 0.410405 8.18738 0.916667 8.18738H5.5Z" fill="white"/>
</g>
<defs>
<clipPath id="clip0">
<rect width="11" height="9" fill="white" transform="translate(0 0.987427)"/>
</clipPath>
</defs>
</svg>
