<svg width="30" height="30" viewBox="0 0 30 30" fill="none" xmlns="http://www.w3.org/2000/svg">
<path fill-rule="evenodd" clip-rule="evenodd" d="M14.8489 0C6.64861 0 0 6.64709 0 14.8489C0 23.0487 6.64861 29.6958 14.8489 29.6958C23.0487 29.6958 29.6958 23.0487 29.6958 14.8489C29.6958 6.64709 23.0487 0 14.8489 0ZM22.38 16.4537C23.0727 17.13 23.8041 17.7665 24.4253 18.5111C24.6999 18.8419 24.9596 19.1833 25.1582 19.5672C25.44 20.1133 25.1848 20.7141 24.6953 20.7467L21.6532 20.7452C20.8682 20.8105 20.2424 20.4946 19.7157 19.9576C19.2946 19.5289 18.9042 19.072 18.4994 18.6285C18.333 18.4473 18.1595 18.2768 17.9518 18.1416C17.5367 17.872 17.1759 17.9548 16.9386 18.3881C16.6971 18.8286 16.642 19.3166 16.6185 19.8076C16.5858 20.5242 16.369 20.7125 15.6497 20.7452C14.1114 20.8177 12.6516 20.5849 11.2959 19.8091C10.1005 19.1252 9.17316 18.1595 8.3662 17.0662C6.79557 14.9377 5.59253 12.5985 4.51101 10.1939C4.2676 9.6524 4.4457 9.36152 5.04342 9.35127C6.03608 9.3319 7.02835 9.33342 8.02215 9.34975C8.42582 9.35582 8.69279 9.58709 8.84848 9.96835C9.38544 11.2887 10.0424 12.5449 10.8672 13.7096C11.0867 14.0195 11.3108 14.3294 11.6297 14.5477C11.9829 14.7892 12.2514 14.7091 12.4173 14.3161C12.5229 14.067 12.5689 13.7985 12.5924 13.5315C12.671 12.6133 12.6816 11.6966 12.5434 10.7814C12.4591 10.2103 12.1371 9.84076 11.5675 9.73253C11.2766 9.67747 11.3199 9.56924 11.4608 9.40329C11.7053 9.11696 11.9354 8.93886 12.3938 8.93886H15.832C16.3735 9.04557 16.4939 9.28899 16.568 9.83354L16.571 13.653C16.5649 13.8638 16.6762 14.4896 17.056 14.629C17.3601 14.7285 17.5603 14.4854 17.7429 14.2925C18.5662 13.4187 19.1537 12.3862 19.6785 11.3168C19.9116 10.8467 20.1118 10.3584 20.3062 9.87038C20.4501 9.50848 20.6753 9.33038 21.0835 9.33797L24.3927 9.34101C24.4906 9.34101 24.5901 9.34253 24.6851 9.35886C25.2429 9.4538 25.3956 9.6938 25.2235 10.2384C24.952 11.0928 24.4238 11.8048 23.9077 12.5199C23.3559 13.2835 22.7654 14.021 22.2182 14.7892C21.7154 15.491 21.7553 15.8442 22.38 16.4537Z" fill="#8898AA"/>
</svg>
